Coordinates
version=1
nRows=14
nColumns=24
inDegrees=yes

Units are S.I. units (second, meters, Newtons, ...)
Angles are in degrees.

endheader
time	pelvis_tilt	pelvis_list	pelvis_rotation	pelvis_tx	pelvis_ty	pelvis_tz	hip_flexion_r	hip_adduction_r	hip_rotation_r	knee_angle_r	ankle_angle_r	subtalar_angle_r	mtp_angle_r	hip_flexion_l	hip_adduction_l	hip_rotation_l	knee_angle_l	ankle_angle_l	subtalar_angle_l	mtp_angle_l	lumbar_extension	lumbar_bending	lumbar_rotation
      1.32533333	     -5.88211595	      2.12333525	     -5.75033185	      0.49267131	      1.07175423	      0.26725394	     25.04022908	     -3.61495727	     -2.52266274	    -64.61346700	      4.70408676	     -2.07263461	      6.12580912	     12.20926167	      3.10405402	      0.09283766	    -12.64439101	      8.77710090	      0.86260281	      0.10761914	     -8.32486299	     -4.04125176	     -0.09298330
      1.32950000	     -5.82930348	      2.03870864	     -5.64990535	      0.49775840	      1.07247274	      0.26695738	     25.38852194	     -3.53476139	     -2.72614116	    -63.92113012	      5.00877140	     -1.87230824	      6.17543555	     11.61848388	      3.08039509	      0.23038925	    -12.16078318	      8.80803994	      0.85579008	      0.13305171	     -8.36058366	     -3.88992102	     -0.29220109
      1.33366667	     -5.84498776	      1.95259417	     -5.54967392	      0.50285532	      1.07300851	      0.26668843	     25.80138966	     -3.43918056	     -2.92095634	    -63.20129930	      5.30537079	     -1.76970855	      6.20107084	     11.12033009	      3.03820423	      0.30758750	    -11.71670764	      8.80375021	      0.91909628	      0.14515163	     -8.30503051	     -3.73602583	     -0.37436554
      1.33783333	     -5.78888829	      1.87765886	     -5.44694768	      0.50792769	      1.07363497	      0.26640485	     26.12693788	     -3.37153171	     -3.11775356	    -62.44997848	      5.59151495	     -1.62842880	      6.26385878	     10.52543625	      3.02385683	      0.48533386	    -11.22473717	      8.79181118	      0.82179106	      0.18192768	     -8.33536770	     -3.60046892	     -0.63795442
      1.34200000	     -5.80617050	      1.79443678	     -5.35635857	      0.51301164	      1.07406574	      0.26616478	     26.52432996	     -3.27629356	     -3.29594760	    -61.67285398	      5.85046356	     -1.53997351	      6.28491679	     10.03781330	      2.97867840	      0.55060336	    -10.79959476	      8.82929679	      0.88999652	      0.19419080	     -8.27495748	     -3.45417747	     -0.68862155
      1.34616667	     -5.76253499	      1.72739650	     -5.26552472	      0.51806516	      1.07454944	      0.26592028	     26.85106174	     -3.21060860	     -3.47212462	    -60.87502688	      6.10381079	     -1.42857971	      6.32418396	      9.46894821	      2.96262494	      0.69689843	    -10.33341602	      8.85830629	      0.84329623	      0.22084638	     -8.29648915	     -3.32634143	     -0.88808884
      1.35033333	     -5.78862681	      1.66220421	     -5.19137428	      0.52311899	      1.07484630	      0.26573301	     27.24992693	     -3.12420665	     -3.61888141	    -60.05882909	      6.34939528	     -1.40495447	      6.33796939	      8.99449130	      2.92821216	      0.74469079	     -9.90644345	      8.88334372	      0.91344896	      0.23003837	     -8.22724316	     -3.20152806	     -0.93611737
      1.35450000	     -5.76868977	      1.57418805	     -5.09840616	      0.52816532	      1.07520584	      0.26552058	     27.56923428	     -3.02892920	     -3.78812450	    -59.18642868	      6.57267334	     -1.35146301	      6.35637716	      8.47528848	      2.87756138	      0.84756057	     -9.49539277	      8.92128580	      0.90442972	      0.24516227	     -8.20946540	     -3.06475683	     -1.06777699
      1.35866667	     -5.80334517	      1.53790381	     -5.03963732	      0.53319512	      1.07534684	      0.26538184	     27.97302302	     -2.96598312	     -3.90212242	    -58.34328593	      6.79789912	     -1.35521467	      6.36629897	      8.01164790	      2.86949917	      0.90877420	     -9.06588379	      8.96907004	      0.95716551	      0.25437658	     -8.14036018	     -2.96150728	     -1.14334658
      1.36283333	     -5.79277372	      1.47683572	     -4.95699139	      0.53820360	      1.07556863	      0.26520158	     28.29650604	     -2.89374448	     -4.04098631	    -57.43782642	      6.97178951	     -1.35274000	      6.38474756	      7.49765619	      2.84563227	      1.06973780	     -8.63617187	      9.00497233	      0.85461233	      0.27822394	     -8.11858384	     -2.84281297	     -1.35703880
      1.36700000	     -5.81160319	      1.44196779	     -4.90612251	      0.54320463	      1.07564569	      0.26510685	     28.66121667	     -2.82614307	     -4.13062459	    -56.54039907	      7.19285344	     -1.38630421	      6.39053441	      7.03184646	      2.83286454	      1.09917502	     -8.23601828	      9.04961085	      0.92512184	      0.28621820	     -8.05900106	     -2.76331423	     -1.39355467
      1.37116667	     -5.84782760	      1.40293622	     -4.85044140	      0.54819915	      1.07564440	      0.26502148	     29.02999129	     -2.75272822	     -4.22000646	    -55.61085918	      7.37376025	     -1.43011982	      6.39408249	      6.59046344	      2.81338759	      1.15034188	     -7.84988381	      9.11701795	      0.96730896	      0.29492084	     -7.98437190	     -2.67953646	     -1.45416067
      1.37533333	     -5.83087826	      1.35698398	     -4.78222255	      0.55315367	      1.07572155	      0.26492266	     29.32160124	     -2.67991689	     -4.30939742	    -54.63774664	      7.49198400	     -1.53176523	      6.39712193	      6.08654146	      2.79508725	      1.28975932	     -7.45054240	      9.15940037	      0.87680441	      0.31723263	     -7.97943755	     -2.58615936	     -1.63275206
      1.37950000	     -5.88064058	      1.34732813	     -4.74396536	      0.55811785	      1.07556325	      0.26489230	     29.70015128	     -2.62471888	     -4.35704434	    -53.68728587	      7.68669140	     -1.59500612	      6.39819992	      5.66910985	      2.79975182	      1.31441960	     -7.07737611	      9.22539423	      0.93700022	      0.32548793	     -7.88780778	     -2.53741966	     -1.66623505
